<svg width="70" height="70" viewBox="0 0 70 70" fill="none" xmlns="http://www.w3.org/2000/svg">
<g clip-path="url(#clip0_95_31)">
<path d="M69.941 13.6594C69.9891 15.3712 69.2852 16.7419 68.0917 17.9312C62.6489 23.3552 57.2367 28.8076 51.7743 34.2119C51.1076 34.8721 51.171 35.1869 51.8005 35.8122C57.1821 41.1421 62.5287 46.5071 67.8797 51.8676C70.7104 54.7031 70.7038 57.9278 67.8688 60.7699C65.425 63.2184 62.9834 65.6691 60.5287 68.1067C57.9952 70.6231 54.6399 70.6406 52.0978 68.1111C46.6506 62.6915 41.2166 57.261 35.8109 51.7999C35.1792 51.1615 34.8557 51.1265 34.2065 51.7846C28.8796 57.1692 23.5155 62.5144 18.1557 67.8663C15.3185 70.7018 12.079 70.7083 9.2571 67.8925C6.83298 65.4746 4.41324 63.0566 1.99786 60.6299C-0.662333 57.9584 -0.653589 54.6529 2.02628 51.966C7.40349 46.5792 12.772 41.1859 18.1863 35.8362C18.8967 35.1344 18.8224 34.7978 18.1623 34.1441C12.8069 28.8404 7.48656 23.4995 2.15961 18.1673C-0.725723 15.2794 -0.716979 12.0853 2.17491 9.19079C4.59466 6.76848 7.00785 4.34179 9.43634 1.93041C12.0266 -0.638374 15.3644 -0.647118 17.9459 1.92604C23.3887 7.35001 28.8227 12.7805 34.2327 18.2351C34.8229 18.8319 35.1399 18.8735 35.7563 18.2526C41.0854 12.8702 46.4517 7.5249 51.8093 2.1709C54.699 -0.717077 57.91 -0.723636 60.7866 2.14685C63.261 4.61726 65.7266 7.09422 68.2032 9.56245C69.3399 10.6949 69.9716 12.035 69.941 13.6594Z" fill="#581F1F"/>
</g>
<defs>
<clipPath id="clip0_95_31">
<rect width="70" height="70" fill="white"/>
</clipPath>
</defs>
</svg>
