<svg width="454" height="93" viewBox="0 0 454 93" fill="none" xmlns="http://www.w3.org/2000/svg">
<g clip-path="url(#clip0_24_298)">
<path d="M155.2 1.5H291.92C316.585 1.5 336.58 21.495 336.58 46.16C336.58 70.825 316.585 90.82 291.92 90.82H155.2C130.535 90.82 110.54 70.825 110.54 46.16C110.54 21.495 130.535 1.5 155.2 1.5Z" fill="#C19148" stroke="black" stroke-width="3"/>
<path d="M321.7 46.1C321.7 65.209 306.209 80.7 287.1 80.7C267.991 80.7 252.5 65.209 252.5 46.1C252.5 26.9909 267.991 11.5 287.1 11.5C306.209 11.5 321.7 26.9909 321.7 46.1Z" fill="#E8D125" stroke="#C19148"/>
<path d="M287.5 62.0137C296.613 62.0137 304 54.6264 304 45.5137C304 36.401 296.613 29.0137 287.5 29.0137C278.387 29.0137 271 36.401 271 45.5137C271 54.6264 278.387 62.0137 287.5 62.0137Z" fill="white"/>
<path d="M261.197 59.1048L266.342 44.2451L276.324 63.3961L261.197 59.1048Z" fill="white"/>
<path d="M258 42.8841L270.359 33.1686L268.399 54.6769L258 42.8841Z" fill="white"/>
<path d="M264.075 27.5099L279.723 26.0187L266.452 43.0534L264.075 27.5099Z" fill="white"/>
<path d="M277.496 17.8596L291.47 25.068L271.095 32.2244L277.496 17.8596Z" fill="white"/>
<path d="M294.003 17L301.863 30.6225L280.85 25.6215L294.003 17Z" fill="white"/>
<path d="M308.355 25.2048L307.606 40.9111L292.636 25.3415L308.355 25.2048Z" fill="white"/>
<path d="M316 39.8627L306.877 52.6713L302.697 31.4821L316 39.8627Z" fill="white"/>
<path d="M314.502 56.3243L299.903 62.1719L307.841 42.0832L314.502 56.3243Z" fill="white"/>
<path d="M304.338 69.3673L288.898 66.3915L306.441 53.7783L304.338 69.3673Z" fill="white"/>
<path d="M288.742 74.8437L277.359 63.9887L298.933 62.8687L288.742 74.8437Z" fill="white"/>
<path d="M272.658 71.0148L268.953 55.7383L287.707 66.4501L272.658 71.0148Z" fill="white"/>
</g>
<defs>
<clipPath id="clip0_24_298">
<rect width="453.71" height="92.32" fill="white"/>
</clipPath>
</defs>
</svg>
