<svg width="181" height="291" viewBox="0 0 181 291" fill="none" xmlns="http://www.w3.org/2000/svg">
<path d="M67.5 224.89C58.36 224.89 49.21 224.74 40.07 224.96C36.54 225.04 35.34 223.84 35.54 220.4C35.76 216.59 35.71 212.75 35.55 208.94C35.43 206.09 36.19 204.73 39.42 204.75C58.37 204.86 77.32 204.82 96.27 204.77C99.13 204.77 100.58 205.65 100.37 208.81C100.14 212.29 100.03 215.82 100.37 219.27C100.8 223.58 99.44 225.15 94.91 224.99C85.78 224.66 76.63 224.89 67.49 224.89H67.5Z" fill="#F4F4F4"/>
<path d="M67.74 290.13C47.58 290.13 27.43 290.17 7.27002 290.1C0.440025 290.08 -1.11998 287.52 0.690025 280.95C5.15002 264.76 9.47003 248.54 13.67 232.28C14.93 227.4 16.36 223.23 22.66 223.97C24.91 224.24 25.5 222.73 25.52 220.85C25.64 209.27 26.48 197.87 18.81 187.47C11.96 178.18 9.85003 167.09 10.27 155.31C11.45 122.19 12.07 89.04 12.92 55.91C13.03 51.58 13.09 47.27 15.85 43.51C20.58 37.09 28.67 35.48 35.72 40.24C39.12 42.53 40.03 41.51 40.25 38.16C40.51 34.17 40.53 30.17 40.87 26.19C41.87 14.59 54.19 8.68997 63.67 15.43C66.85 17.69 67.47 17.35 67.97 13.54C69.08 5.12997 75.5 -0.260027 83.16 -2.74563e-05C89.71 0.229973 97.63 6.82997 96.83 14.42C96.55 17.04 97.29 17.71 99.85 16.11C112.09 8.46997 123.53 14.56 123.91 28.97C124.63 56.28 125.19 83.59 125.82 110.9C125.86 112.57 125.75 114.25 125.96 115.89C126.16 117.38 125.04 119.68 127.17 120.14C128.66 120.46 129.29 118.38 130.07 117.14C133.34 111.93 136.85 106.86 139.81 101.49C146.17 89.96 159.96 86.7 171.43 88.67C172.72 88.89 173.98 89.46 175.17 90.04C181.02 92.87 182 95.98 178.79 101.44C168.3 119.34 157.59 137.13 147.37 155.19C142.45 163.89 135.86 170.94 128.58 177.56C124.52 181.25 120.56 185.08 116.85 189.11C112.19 194.18 109.52 200.09 110.01 207.25C110.31 211.56 110.14 215.91 110.06 220.24C110.01 222.91 110.95 224.33 113.85 224.05C117.89 223.67 119.8 225.78 120.83 229.57C125.6 247.05 130.56 264.47 135.4 281.93C137.04 287.83 135.35 290.1 129.21 290.11C108.72 290.17 88.23 290.13 67.74 290.13ZM21.36 108.49C21.06 108.49 20.76 108.49 20.46 108.49C20.46 121.81 21.51 135.23 20.19 148.42C18.59 164.54 23.53 178.15 31.97 191.16C33.34 193.27 34.89 194.34 37.62 194.32C57.77 194.2 77.93 194.22 98.08 194.3C100.49 194.3 102.21 193.75 103.33 191.5C106.81 184.52 112.33 179.21 117.86 173.91C123.25 168.74 129.79 164.52 133.7 158.13C145.13 139.41 156.07 120.39 167.22 101.5C168.54 99.26 168.01 98.05 165.35 98.07C158.75 98.12 152.78 99.57 148.96 105.65C144.28 113.1 139.64 120.59 134.92 128.02C131.43 133.51 127.86 135.19 122.96 133.84C118.78 132.69 116.26 128.68 116.11 122.86C115.64 104.38 115.16 85.9 114.74 67.42C114.45 54.43 114.23 41.44 114.03 28.45C113.99 25.86 113.14 23.96 110.64 22.91C108.81 22.14 107.4 22.91 106.07 23.97C104.25 25.41 104.49 27.51 104.44 29.49C103.74 53.96 103.05 78.43 102.33 102.9C102.17 108.32 100.18 110.16 94.95 109.88C90.46 109.64 88.88 107.64 88.77 102.11C88.18 73.64 87.57 45.16 87.01 16.69C86.94 13.25 86.47 9.88997 82.19 10.08C78.45 10.25 77.68 13.42 77.6 16.66C77.38 24.82 77.15 32.97 76.91 41.13C76.3 61.77 75.64 82.41 75.08 103.05C74.97 107.16 73.47 109.74 69.04 109.96C64.05 110.21 61.74 108.24 61.56 102.84C61.23 93.19 61.19 83.52 60.99 73.87C60.67 58.89 60.35 43.9 59.95 28.92C59.87 25.77 59.14 22.64 55.08 22.74C51.37 22.83 50.71 25.62 50.59 28.71C50.35 34.87 49.97 41.02 49.75 47.17C49.08 65.81 48.4 84.45 47.85 103.09C47.72 107.54 45.97 109.98 41.3 109.93C36.54 109.88 35.12 107.12 34.92 102.83C34.18 86.7 33.29 70.57 32.42 54.44C32.24 51.13 31.57 47.58 27.46 47.62C23.25 47.66 22.99 51.22 22.9 54.56C22.41 72.54 21.87 90.52 21.35 108.5L21.36 108.49ZM67.82 280.24V280.2C85.13 280.2 102.45 280.18 119.76 280.22C122.3 280.22 124.71 280.34 123.65 276.59C120.08 263.98 116.31 251.43 113.07 238.73C112.07 234.81 110.4 233.91 106.62 233.93C80.98 234.09 55.34 234.2 29.71 233.85C24.47 233.78 22.84 235.83 21.76 240.28C19.03 251.57 16.02 262.8 13.01 274.03C11.35 280.24 11.25 280.23 17.88 280.24C34.53 280.25 51.18 280.24 67.82 280.24ZM67.31 224.07C76.45 224.07 85.6 223.84 94.73 224.17C99.26 224.33 100.62 222.76 100.19 218.45C99.85 214.99 99.96 211.46 100.19 207.99C100.4 204.82 98.95 203.94 96.09 203.95C77.14 204 58.19 204.04 39.24 203.93C36.01 203.91 35.26 205.27 35.37 208.12C35.52 211.94 35.58 215.77 35.36 219.58C35.16 223.02 36.37 224.22 39.89 224.14C49.03 223.93 58.17 224.07 67.32 224.08L67.31 224.07Z" fill="#151515"/>
<path d="M21.36 108.49C21.88 90.51 22.42 72.5299 22.91 54.5499C23 51.2099 23.26 47.65 27.47 47.61C31.58 47.57 32.25 51.12 32.43 54.43C33.3 70.5599 34.18 86.69 34.93 102.82C35.13 107.11 36.55 109.87 41.31 109.92C45.98 109.97 47.73 107.53 47.86 103.08C48.41 84.44 49.09 65.7999 49.76 47.16C49.98 41 50.36 34.85 50.6 28.7C50.72 25.61 51.38 22.8199 55.09 22.7299C59.15 22.6399 59.88 25.76 59.96 28.91C60.36 43.8899 60.68 58.88 61 73.86C61.2 83.52 61.25 93.18 61.57 102.83C61.75 108.22 64.06 110.19 69.05 109.95C73.48 109.73 74.98 107.16 75.09 103.04C75.65 82.4 76.3 61.7599 76.92 41.1199C77.16 32.9599 77.39 24.81 77.61 16.65C77.7 13.41 78.46 10.24 82.2 10.07C86.47 9.87995 86.95 13.24 87.02 16.68C87.58 45.15 88.19 73.63 88.78 102.1C88.89 107.64 90.47 109.63 94.96 109.87C100.19 110.15 102.18 108.31 102.34 102.89C103.06 78.42 103.75 53.9499 104.45 29.4799C104.51 27.4999 104.27 25.3999 106.08 23.9599C107.42 22.8999 108.82 22.13 110.65 22.9C113.15 23.9499 114 25.85 114.04 28.44C114.23 41.43 114.45 54.42 114.75 67.41C115.17 85.89 115.65 104.37 116.12 122.85C116.27 128.67 118.79 132.68 122.97 133.83C127.87 135.18 131.44 133.5 134.93 128.01C139.65 120.58 144.29 113.1 148.97 105.64C152.79 99.57 158.76 98.11 165.36 98.06C168.02 98.04 168.55 99.26 167.23 101.49C156.09 120.38 145.15 139.4 133.71 158.12C129.8 164.52 123.26 168.74 117.87 173.9C112.34 179.2 106.82 184.51 103.34 191.49C102.22 193.74 100.5 194.3 98.09 194.29C77.94 194.21 57.78 194.19 37.63 194.31C34.9 194.33 33.36 193.26 31.98 191.15C23.53 178.14 18.59 164.53 20.2 148.41C21.51 135.22 20.47 121.8 20.47 108.48C20.77 108.48 21.07 108.48 21.37 108.48L21.36 108.49Z" fill="#F4F4F4"/>
<path d="M67.82 280.24C51.17 280.24 34.52 280.24 17.88 280.24C11.25 280.24 11.35 280.24 13.01 274.03C16.02 262.8 19.03 251.58 21.76 240.28C22.84 235.83 24.47 233.78 29.71 233.85C55.34 234.2 80.98 234.09 106.62 233.93C110.4 233.91 112.07 234.81 113.07 238.73C116.31 251.42 120.08 263.98 123.65 276.59C124.71 280.34 122.3 280.22 119.76 280.22C102.45 280.19 85.13 280.2 67.82 280.2V280.24Z" fill="#FAFAFA"/>
</svg>
