<svg width="260" height="220" viewBox="0 0 260 220" fill="none" xmlns="http://www.w3.org/2000/svg">
<path d="M72.06 122.16C62.13 109.99 53 99.08 44.18 87.92C33.06 73.84 20.76 60.68 11 45.54C6.76001 38.96 3.2 32.07 1.29 24.38C-0.549996 16.97 -0.189986 9.94 5.80001 4.58C12.03 -0.999999 19.33 -0.0800016 26.47 2.71C33.47 5.44 38.85 10.37 43.51 16.15C49.25 23.27 55.02 30.36 60.76 37.47C61.59 38.5 62.27 39.9 63.83 39.57C65.24 39.27 64.9 37.74 65.25 36.71C70.02 22.74 85.59 17.98 98.76 26.33C101.27 27.92 103.18 31.42 105.99 31.13C108.69 30.85 109.13 26.81 110.99 24.71C117.54 17.33 131.55 16.41 140.21 23.44C143.96 26.48 144.99 26.25 147.2 21.82C153.97 8.22 172.4 6.35 182.97 18.23C193.69 30.29 202.22 44.01 211.13 57.43C222.72 74.89 230.67 93.9 236.78 113.87C240.56 126.23 247.08 137.23 256.71 146.19C260.77 149.97 260.73 152.58 256.51 156.04C231.33 176.69 206.09 197.26 180.9 217.89C177.72 220.5 174.93 220.38 171.51 218.06C144.97 200.08 115.36 188.87 85.1 179.01C72.17 174.8 59.35 170.11 47.44 163.39C35.57 156.7 31.46 147.45 35.18 136.08C38.16 126.98 45.47 123.33 54.15 122.26C59.53 121.6 65.06 122.14 72.03 122.14L72.06 122.16ZM62.62 131.68C59.49 131.78 56.12 131.6 52.89 132.56C44.98 134.91 41.62 141.74 45.11 148.26C46.93 151.67 50.1 153.6 53.3 155.33C62.54 160.32 72.32 164.1 82.24 167.45C113.73 178.09 145.15 188.86 173.24 207.25C175.24 208.56 176.6 208.59 178.49 207.04C200.35 189.13 222.25 171.28 244.2 153.49C246.51 151.62 246.86 150.29 244.7 147.92C238.46 141.12 234.08 133.14 230.32 124.73C225.97 114.98 223.89 104.46 219.8 94.69C210.04 71.38 195.42 50.97 180.48 30.79C178.32 27.87 176.28 24.83 173.13 22.74C168.97 19.98 164.68 19.76 160.35 21.93C156.22 24 154.8 27.83 154.43 32.23C154.18 35.17 155.38 37.78 155.98 40.53C156.54 43.11 156.8 45.66 153.99 47.04C151.18 48.42 148.96 47.37 147.05 44.97C144.15 41.34 141.16 37.78 138.02 34.35C133.46 29.37 127.57 27.19 121.32 29.65C115.61 31.9 115.17 37.9 114.82 43.24C114.63 46.22 114.57 49.1 111.23 50.14C107.8 51.2 106.18 48.64 104.49 46.28C100.59 40.86 96.48 35.65 90.03 32.97C83.5 30.26 76.78 33.51 74.75 40.32C73.02 46.12 74.71 51.48 76.59 56.85C77.53 59.53 77.08 61.82 74.59 63.39C72.21 64.89 70.14 64.1 68.35 62.21C67.66 61.49 67.01 60.73 66.38 59.96C56.09 47.33 45.84 34.67 35.52 22.06C31.12 16.69 26.09 12.22 18.89 10.99C12.94 9.97 10.01 12.55 10.44 18.66C10.82 24.08 13.04 28.92 15.57 33.63C24.47 50.19 37.57 63.6 49.12 78.17C60.48 92.5 72.17 106.57 83.6 120.84C85.89 123.69 88.03 126.87 85.45 130.78C82.78 134.82 78.98 134.36 75.19 133.2C71.13 131.96 66.96 132.08 62.64 131.68H62.62Z" fill="#151515"/>
<path d="M62.62 131.68C66.95 132.09 71.11 131.96 75.17 133.2C78.95 134.36 82.76 134.82 85.43 130.78C88.01 126.86 85.87 123.69 83.58 120.84C72.15 106.57 60.46 92.5 49.1 78.17C37.55 63.6 24.45 50.2 15.55 33.63C13.02 28.92 10.8 24.08 10.42 18.66C9.99002 12.54 12.92 9.96999 18.87 10.99C26.07 12.22 31.1 16.69 35.5 22.06C45.82 34.67 56.07 47.32 66.36 59.96C66.99 60.73 67.64 61.49 68.33 62.21C70.12 64.09 72.18 64.88 74.57 63.39C77.07 61.82 77.51 59.53 76.57 56.85C74.69 51.48 73 46.12 74.73 40.32C76.76 33.51 83.48 30.26 90.01 32.97C96.47 35.65 100.58 40.85 104.47 46.28C106.16 48.63 107.78 51.2 111.21 50.14C114.55 49.11 114.61 46.23 114.8 43.24C115.15 37.9 115.59 31.89 121.3 29.65C127.56 27.19 133.44 29.37 138 34.35C141.13 37.77 144.13 41.34 147.03 44.97C148.94 47.36 151.16 48.42 153.97 47.04C156.78 45.66 156.53 43.11 155.96 40.53C155.36 37.78 154.16 35.17 154.41 32.23C154.78 27.83 156.2 24.01 160.33 21.93C164.65 19.76 168.95 19.98 173.11 22.74C176.26 24.83 178.3 27.87 180.46 30.79C195.4 50.96 210.02 71.38 219.78 94.69C223.87 104.46 225.95 114.99 230.3 124.73C234.06 133.15 238.44 141.12 244.68 147.92C246.85 150.28 246.49 151.62 244.18 153.49C222.23 171.28 200.33 189.13 178.47 207.04C176.58 208.59 175.22 208.56 173.22 207.25C145.14 188.86 113.71 178.09 82.22 167.45C72.3 164.1 62.52 160.33 53.28 155.33C50.08 153.6 46.92 151.67 45.09 148.26C41.61 141.75 44.96 134.91 52.87 132.56C56.1 131.6 59.47 131.79 62.6 131.68H62.62Z" fill="#FAFAFA"/>
</svg>
