<svg width="454" height="93" viewBox="0 0 454 93" fill="none" xmlns="http://www.w3.org/2000/svg">
<g clip-path="url(#clip0_24_318)">
<path d="M155.2 1.5H291.92C316.585 1.5 336.58 21.495 336.58 46.16C336.58 70.825 316.585 90.82 291.92 90.82H155.2C130.535 90.82 110.54 70.825 110.54 46.16C110.54 21.495 130.535 1.5 155.2 1.5Z" fill="#72A2DC" stroke="black" stroke-width="3"/>
<path d="M158.68 81.26C178.065 81.26 193.78 65.5452 193.78 46.16C193.78 26.7748 178.065 11.06 158.68 11.06C139.295 11.06 123.58 26.7748 123.58 46.16C123.58 65.5452 139.295 81.26 158.68 81.26Z" fill="#281980"/>
<path d="M167.764 63.0854C156.086 63.0854 146.612 53.5288 146.612 41.7337C146.612 29.9387 156.079 20.382 167.764 20.382C169.057 20.382 170.315 20.5083 171.538 20.7258C167.472 18.3612 162.759 17 157.727 17C142.414 17.014 130 29.5458 130 45.0035C130 60.4612 142.414 73 157.734 73C168.973 73 178.642 66.243 183 56.5459C179.156 60.5805 173.755 63.0925 167.771 63.0925L167.764 63.0854Z" fill="white"/>
</g>
<defs>
<clipPath id="clip0_24_318">
<rect width="453.71" height="92.32" fill="white"/>
</clipPath>
</defs>
</svg>
