<svg width="1919" height="1080" viewBox="0 0 1919 1080" fill="none" xmlns="http://www.w3.org/2000/svg">
<rect width="434.868" height="672" fill="url(#paint0_linear_13_184)" fill-opacity="0.5"/>
<path d="M504.326 677.535C502.55 676.164 501.041 674.353 498.964 673.419C495.106 671.681 491.728 668.751 487.788 667.157C486.842 666.779 486.455 666.588 486.369 667.771C482.667 665.575 478.53 665.107 474.708 663.409C474.379 662.596 473.943 661.818 473.734 660.98C473.254 659.008 472.407 657.377 470.758 656.293C470.661 655.878 470.563 655.464 470.465 655.049L470.6 655.071C471.058 654.832 471.422 654.623 471.577 653.944C472.357 650.53 472.443 646.946 472.999 643.487C473.098 642.851 472.839 642.187 472.441 641.632C472.365 641.25 472.279 640.871 472.207 640.5C473.774 639.366 472.666 638.082 472.128 636.838C472.003 636.301 471.882 635.775 471.756 635.238C473.371 633.853 472.04 632.417 471.537 630.991C471.437 630.604 471.336 630.216 471.232 629.817C472.747 628.411 471.565 627.006 470.964 625.598C470.737 624.779 470.52 623.956 470.297 623.149C471.591 621.525 470.573 619.504 470.578 617.704C470.631 608.199 468.367 599.046 464.288 590.436C463.222 588.194 461.438 586.142 459.58 584.22C456.417 580.946 453.085 578.198 449.175 576.476C446.701 575.395 444.077 574.716 441.497 574.063C439.475 573.558 437.502 572.84 435.416 572.606C433.414 572.383 431.405 572.242 429.411 572.043C427.126 571.806 424.919 572.647 422.621 571.824C422.215 571.679 421.694 571.833 421.276 571.98C419.158 572.701 417.022 572.272 414.862 571.772C414.375 571.666 413.848 571.875 413.345 571.971C410.902 572.441 408.681 574.074 405.957 573.047C405.64 572.926 405.006 573.09 404.871 573.357C403.953 575.213 401.92 574.817 400.586 575.81C398.863 576.312 397.136 576.801 395.413 577.302C395.193 576.468 394.676 576.306 394.029 576.501C392.001 577.139 389.973 577.778 387.953 578.441C387.331 578.641 386.9 579.002 387.422 579.832C389.947 579.112 392.482 578.389 395.007 577.669C395.08 577.895 395.193 578.069 395.302 578.191C395.19 578.057 395.09 577.892 395.007 577.669C392.482 578.389 389.947 579.112 387.422 579.832L387.523 579.931C385.923 580.419 384.324 580.907 382.714 581.398C382.137 580.14 381.242 580.611 380.489 580.84C377.467 581.786 374.456 582.806 371.445 583.787L371.435 583.79C370.736 581.679 369.713 583.097 368.793 583.275L368.772 583.281C368.526 582.258 368.054 582.2 367.423 582.77C366.896 582.467 366.369 582.164 365.856 581.87C365.61 580.663 364.647 580.198 363.83 580.041C362.244 579.737 360.747 579.273 359.356 578.303C359.237 578.223 358.919 578.536 358.702 578.658C356.977 578.281 355.697 576.133 353.719 576.782C348.396 572.824 342.622 572.108 336.676 572.602C336.297 571.78 335.714 571.665 335.018 571.889C331.76 572.936 328.513 573.98 325.248 575.003C324.5 575.244 324.228 575.738 324.342 576.567C323.38 576.903 322.421 577.251 321.448 577.589C320.234 578.045 318.506 577.695 318.413 579.877C318.06 580.044 317.702 580.198 317.359 580.361C316.523 580.656 315.683 580.939 314.848 581.234C311.713 581.9 308.822 583.039 306.807 585.865C306.413 586.412 305.845 586.529 305.316 586.765C303.032 587.801 301.155 589.349 299.967 591.778C299.769 591.96 299.572 592.141 299.378 592.335C295.927 594.232 293.647 597.353 291.928 601.068C291.77 601.408 291.844 601.896 291.815 602.312C290.913 602.51 290.96 603.203 291.176 603.987C290.567 605.39 289.564 606.29 288.131 606.317C286.638 606.338 286.648 608.041 285.705 608.62C283.58 608.41 282.889 610.575 281.761 611.738C280.927 612.583 280.109 613.187 279.118 613.506C268.834 616.864 258.539 620.226 248.22 623.478C228.869 629.567 209.406 635.273 190.284 642.076C187.162 643.185 184.64 645.623 181.321 646.296C179.869 646.592 178.494 647.27 177.082 647.763C175.859 648.157 174.636 648.55 173.424 648.939C172.812 649.136 172.211 649.329 171.6 649.526C168.198 650.593 164.594 651.213 161.898 653.944C161.041 654.245 160.178 654.562 159.321 654.864C158.228 655.228 157.15 655.601 156.058 655.965C154.791 655.966 153.785 656.748 152.621 657.07C151.896 657.277 151.886 657.897 151.872 658.545C153.369 658.063 154.866 657.582 156.359 657.089C156.425 657.041 156.481 656.997 156.551 656.962C156.691 656.89 156.838 656.843 156.99 656.808C156.842 656.855 156.684 656.906 156.551 656.962C156.481 656.997 156.415 657.045 156.359 657.089C154.862 657.57 153.365 658.051 151.872 658.545C150.503 659.208 148.412 658.633 148.113 661.078L147.057 661.483C145.985 661.841 144.907 662.214 143.836 662.571C143.129 662.798 142.851 663.347 142.933 664.148C142.466 664.324 142.003 664.512 141.536 664.688C140.142 665.307 138.103 664.821 137.753 667.217C135.564 668.734 133.147 669.865 131.216 671.825C130.559 672.495 129.468 672.649 128.582 673.039C127.486 673.286 126.227 673.31 126.295 675.086C124.172 676.228 122.206 677.569 120.531 679.42C119.605 680.452 118.3 681.095 117.22 681.862C114.192 684.029 111.34 686.416 108.89 689.224C106.981 691.4 104.709 693.128 102.914 695.476C100.882 698.137 98.9001 700.848 95.5576 702.211C91.9065 703.699 88.9449 706.581 86.0309 709.538C83.8436 711.75 81.7841 714.617 78.613 715.571L105.007 798.106C105.862 798.96 106.649 799.967 107.259 800.965C109.059 803.904 110.464 807.1 111.846 810.33C113.961 815.306 116.274 820.284 119.486 824.658C119.61 824.828 119.843 824.976 119.879 825.162C120.525 828.235 122.771 830.387 124.064 833.121C125.204 835.523 126.859 837.826 128.081 840.228C129.629 843.287 132.013 845.617 133.429 848.81C134.5 851.248 135.953 853.865 138.525 855.111C138.735 855.477 138.952 855.827 139.162 856.193C138.785 857.56 139.473 857.602 140.356 857.383L141.073 858.859C140.821 860.436 141.686 860.959 142.887 861.189C142.999 861.429 143.106 861.657 143.218 861.896C143.026 864.241 144.956 865.406 146.039 866.829C147.086 868.212 147.988 869.759 149.192 871.052C151.973 874.042 154.745 877.075 157.288 880.299C159.688 883.333 162.181 886.259 165.08 888.634C168.433 891.375 171.351 894.754 174.795 897.308C178.667 900.184 182.782 902.654 186.74 905.397C187.625 906.018 188.456 906.144 189.379 906.123C189.462 906.201 189.546 906.28 189.618 906.361C192.274 908.631 195.134 910.376 198.386 911.167C198.801 911.808 199.28 912.218 199.995 911.871C200.228 911.835 200.46 911.8 200.693 911.764C202.055 913.951 204.352 914.262 206.254 915.265C208.893 916.648 211.878 916.712 214.587 918.019C214.78 918.115 215.126 917.741 215.402 917.587C216.079 917.487 216.598 917.766 216.94 918.47C218.98 920.452 221.533 920.327 223.888 920.856C224.624 921.013 225.589 922.067 226.365 921.004C227.44 920.659 228.603 922.004 229.647 921.052C231.202 921.588 232.753 922.113 234.309 922.65C235.527 924.568 237.519 923.928 238.884 924.014C242.073 924.209 245.31 925.386 248.479 924.643C248.252 924.152 248.025 923.661 247.798 923.169C246.462 923.244 245.11 922.944 243.779 922.781C245.096 922.936 246.458 923.233 247.798 923.169C248.025 923.661 248.252 924.152 248.479 924.643C248.744 924.637 249.009 924.63 249.274 924.624C250.664 925.515 251.93 924.492 253.277 924.597C253.367 924.66 253.46 924.735 253.54 924.801C255.223 926.465 257.366 925.75 259.019 925.756C261.22 925.77 263.567 926.092 265.766 925.516C268.317 924.84 271.136 925.837 273.584 924.551C274.162 924.248 274.795 924.084 275.399 923.863C282.945 923.393 290.317 922.125 297.436 919.666C297.979 920.528 298.655 920.35 299.379 920.144C305.376 918.465 311.289 916.525 317.158 914.481C317.867 914.227 318.494 913.933 318.44 912.927C320.628 912.171 322.827 911.412 325.018 910.668C326.635 910.49 328.014 909.639 329.525 909.128C330.178 908.918 330.386 908.404 330.317 907.679C330.672 907.552 331.023 907.413 331.377 907.285C333.536 906.657 335.859 906.396 337.356 904.314C337.541 904.057 337.903 903.954 338.198 903.82C343.168 901.658 347.361 898.263 351.397 894.525C352.708 893.316 353.854 891.701 355.642 891.113C356.327 890.893 356.679 890.32 356.547 889.47C359.517 887.308 362.095 884.642 364.686 881.985C366.26 880.364 367.676 878.61 368.881 876.634C368.984 876.522 369.102 876.419 369.206 876.307C370.601 875.543 371.968 874.763 372.656 873.098C375.176 872.327 378.845 867.368 378.778 864.831C378.977 864.688 379.171 864.534 379.37 864.391C381.245 864.038 382.06 862.188 383.107 860.881C385.528 857.872 387.443 854.408 389.409 850.994C389.729 850.432 389.779 850.009 389.618 849.431C389.811 849.054 390.005 848.677 390.212 848.308C392.044 846.801 393.045 844.589 394.13 842.456C395.269 840.2 396.369 837.93 397.446 835.629C397.578 835.35 397.455 834.93 397.444 834.567C398.413 834.255 399.387 833.955 400.361 833.655C402.35 835.22 403.927 833.611 405.66 833.211L417.52 829.399C419.168 828.738 421.36 829.083 422.078 826.674C422.681 826.454 423.275 826.237 423.878 826.016C426.704 825.108 430.217 825.042 432.187 823.096C434.497 820.831 437.859 821.128 439.825 818.37C440.851 816.925 443.11 816.934 444.855 816.465C445.615 816.26 445.8 817.132 446.016 817.732C446.582 819.322 447.085 820.931 447.694 822.507C448.084 823.51 448.432 824.632 449.677 824.783C449.968 825.582 450.272 826.39 450.563 827.189C450.72 829.461 451.71 831.465 452.604 833.5C452.873 834.123 453.312 834.585 453.998 834.549L454.48 835.693C454.842 837.952 455.445 840.094 457.058 841.793C457.301 842.043 457.559 842.34 457.662 842.662C459.099 846.937 461.939 850.329 464.032 854.183C464.449 854.941 464.87 855.751 465.82 855.813C466.009 856.185 466.208 856.554 466.397 856.927C466.106 858.451 467.113 858.875 468.121 859.299C468.285 859.666 468.453 860.045 468.606 860.416C468.597 861.77 468.866 862.865 470.442 862.739C470.616 863.103 470.791 863.467 470.965 863.83C471.904 867.203 474.376 868.862 477.051 870.102C477.759 870.426 478.83 871.63 479.638 870.229C481.899 870.683 483.721 869.401 485.726 868.836C488.688 867.844 489.883 864.967 491.222 862.318C491.816 861.157 492.392 859.869 492.238 858.37C493.233 855.701 494.257 853.049 495.223 850.363C495.566 849.4 495.798 848.381 496.073 847.387C496.293 846.621 496.513 845.854 496.729 845.076C497.855 843.507 498.112 841.548 498.487 839.629C498.709 839.414 498.647 839.184 498.479 838.95C499.083 837.784 499.751 836.638 499.562 835.137C499.762 834.928 499.725 834.704 499.547 834.473C500.219 833.338 500.565 832.059 500.523 830.655C500.83 830.268 500.62 829.902 500.42 829.533C501.817 828.848 501.021 827.122 501.523 825.964C501.788 825.34 502.426 824.282 501.886 823.249C502.161 822.872 501.966 822.514 501.77 822.157C502.283 821.691 502.911 821.253 502.288 820.324C502.439 820.105 502.385 819.899 502.214 819.692C503.438 817.448 503.09 814.725 503.591 812.255C504.669 806.974 505.754 801.678 506.455 796.308C507.249 790.213 508.535 784.236 508.721 777.982C508.953 770.165 508.174 762.384 507.104 754.605C506.852 752.797 506.362 751.012 505.508 749.358C504.42 747.266 504.621 746.296 506.547 745.192C507.382 744.713 508.024 744.139 508.291 743.122C508.549 742.435 509.291 742.538 509.724 742.149C511.549 741.458 512.96 740.125 513.966 738.397C515.608 735.573 517.349 732.835 518.089 729.369C518.437 727.695 518.771 725.869 518.48 724.414C517.703 720.53 516.852 716.631 514.348 713.236C512.541 710.786 511.018 708.06 508.996 705.771C508.615 705.342 508.192 704.966 507.763 704.605C506.288 703.374 506.364 702.667 507.655 701.543C509.953 699.531 511.037 696.847 511.855 693.553C512.771 689.873 512.024 686.884 510.263 684.104C508.689 681.618 506.682 679.376 504.319 677.551L504.326 677.535ZM109.803 799.216C110.026 799.223 110.245 799.362 110.461 799.673C110.245 799.362 110.03 799.234 109.803 799.216ZM263.508 913.802C262.72 914.173 261.892 914.164 261.051 914.08C261.892 914.164 262.731 914.17 263.508 913.802ZM274.02 913.191C274.07 913.346 274.112 913.477 274.181 913.586C274.122 913.473 274.07 913.346 274.02 913.191ZM294.597 909.372C294.66 909.496 294.723 909.62 294.789 909.717C294.723 909.62 294.654 909.511 294.597 909.372C293.353 909.772 292.12 910.168 290.872 910.556C292.116 910.156 293.35 909.76 294.597 909.372ZM282.23 912.98C282.405 913.055 282.601 913.084 282.795 913.074C282.601 913.084 282.409 913.067 282.23 912.98ZM292.212 919.797C295.318 918.825 298.423 917.879 301.526 916.895C298.426 917.891 295.322 918.836 292.212 919.797ZM301.652 809.247C301.675 809.318 301.688 809.393 301.7 809.467C301.677 809.396 301.654 809.325 301.652 809.247ZM304.339 825.39C304.118 824.7 303.897 824.01 303.683 823.304C303.904 823.995 304.125 824.685 304.339 825.39ZM303.425 818.716C303.169 817.879 302.913 817.043 302.661 816.219C302.917 817.055 303.173 817.891 303.425 818.716ZM302.94 813.308C302.719 812.617 302.505 811.912 302.295 811.218C302.515 811.909 302.729 812.614 302.94 813.308ZM301.959 810.132C302.019 810.284 302.089 810.431 302.146 810.571C302.096 810.416 302.029 810.28 301.959 810.132ZM302.465 807.896C301.814 808.224 301.624 808.613 301.634 809.043C301.617 808.628 301.817 808.236 302.465 807.896ZM334.125 903.554C334.125 903.554 334.157 903.544 334.167 903.541C334.157 903.544 334.136 903.551 334.125 903.554ZM247.776 634.631C247.987 634.563 248.2 634.468 248.408 634.427C248.204 634.48 247.987 634.563 247.776 634.631ZM302.072 791.291C300.805 791.908 300.948 793.122 301.076 794.249C300.952 793.134 300.815 791.905 302.072 791.291C301.939 790.874 301.82 790.466 301.697 790.046C301.83 790.463 301.949 790.871 302.072 791.291ZM301.979 787.148C301.172 787.604 300.912 788.173 301.051 788.824C300.912 788.173 301.161 787.607 301.979 787.148C301.714 786.354 301.577 785.597 301.608 784.787C301.587 785.594 301.714 786.354 301.99 787.144L301.979 787.148ZM249.778 635.365C249.57 634.789 249.309 634.518 249.014 634.43C248.921 634.394 248.814 634.389 248.719 634.38C248.821 634.373 248.921 634.394 249.014 634.43C249.299 634.522 249.57 634.789 249.778 635.365ZM339.965 900.365C339.965 900.365 340.007 900.351 340.028 900.345C340.007 900.351 339.986 900.358 339.965 900.365ZM290.333 615.202C290.248 615.19 290.166 615.151 290.094 615.109C289.868 614.984 289.668 614.721 289.513 614.272C287.025 615.072 284.529 615.848 282.041 616.648C284.529 615.848 287.021 615.06 289.513 614.272C289.657 614.724 289.858 614.988 290.094 615.109C290.166 615.151 290.255 615.175 290.333 615.202C290.507 615.238 290.677 615.223 290.874 615.186C290.688 615.22 290.507 615.238 290.333 615.202ZM291.407 611.288C290.905 611.502 290.437 611.783 290.638 612.519C290.441 611.795 290.905 611.502 291.407 611.288C291.376 611.193 291.346 611.097 291.326 610.999C291.356 611.094 291.376 611.193 291.407 611.288ZM292.77 603.409C292.648 603.501 292.483 603.567 292.3 603.612C292.479 603.555 292.638 603.504 292.77 603.409C293.028 603.234 293.157 602.983 293.153 602.643C293.157 602.983 293.017 603.238 292.77 603.409ZM300.573 613.013C300.354 612.873 300.165 612.645 299.98 612.285C298.989 612.604 297.994 612.91 296.999 613.217C297.99 612.898 298.985 612.592 299.98 612.285C300.154 612.649 300.354 612.873 300.573 613.013C300.645 613.056 300.716 613.098 300.791 613.113C300.713 613.086 300.645 613.056 300.573 613.013ZM315.223 582.373C314.957 582.484 314.691 582.596 314.438 582.717C314.705 582.605 314.971 582.493 315.223 582.373ZM315.972 621.067C315.824 620.603 315.637 620.348 315.397 620.216C315.243 620.134 315.069 620.098 314.896 620.101C315.08 620.095 315.24 620.122 315.397 620.216C315.627 620.352 315.824 620.603 315.972 621.067C316.099 621.027 316.225 620.986 316.341 620.949C316.215 620.99 316.088 621.03 315.972 621.067ZM313.215 610.156C313.125 610.093 313.032 610.018 312.955 609.925C312.868 609.835 312.784 609.717 312.707 609.585L311.589 609.944C311.958 609.825 312.338 609.703 312.707 609.585C312.784 609.717 312.864 609.823 312.955 609.925C313.042 610.015 313.125 610.093 313.215 610.156ZM309.266 585.666C308.803 585.854 308.348 586.066 307.914 586.31C307.481 586.554 307.066 586.819 306.654 587.096C305.835 587.661 305.06 588.291 304.289 588.932C305.064 588.302 305.839 587.673 306.654 587.096C307.062 586.807 307.477 586.542 307.914 586.31C308.352 586.078 308.793 585.857 309.266 585.666C310.622 585.216 311.985 584.752 313.341 584.303C311.981 584.74 310.622 585.216 309.266 585.666ZM325.356 620.82C325.288 620.606 325.216 620.419 325.121 620.265C325.216 620.419 325.298 620.602 325.356 620.82ZM326.881 621.734C326.761 621.287 326.574 620.993 326.316 620.839C326.564 620.996 326.751 621.29 326.881 621.734C327.966 622.29 329.037 622.878 330.102 623.48C329.027 622.881 327.955 622.294 326.881 621.734ZM316.9 581.834C316.847 581.851 316.788 581.883 316.728 581.915C316.791 581.895 316.844 581.878 316.9 581.834C317.068 581.74 317.207 581.63 317.298 581.443C317.203 581.618 317.068 581.74 316.9 581.834ZM325.897 594.19C325.771 593.798 325.61 593.548 325.412 593.401C325.275 593.301 325.133 593.255 324.966 593.243C325.133 593.255 325.279 593.313 325.412 593.401C325.61 593.548 325.782 593.794 325.897 594.19C326.27 593.939 326.666 593.759 327.056 593.634C327.077 593.627 327.098 593.62 327.109 593.617C327.52 593.485 327.954 593.424 328.389 593.402C327.958 593.436 327.524 593.497 327.109 593.617C327.088 593.624 327.067 593.631 327.056 593.634C326.655 593.763 326.27 593.939 325.897 594.19ZM328.912 593.365C329.258 593.359 329.623 593.373 329.978 593.39C329.623 593.373 329.269 593.356 328.912 593.365ZM420.21 813.272C418.534 813.811 416.857 814.35 415.174 814.865C416.854 814.338 418.53 813.799 420.22 813.269C420.426 813.911 420.764 814.17 421.168 814.198C420.761 814.158 420.436 813.908 420.22 813.269L420.21 813.272ZM447.616 818.084C447.643 818.167 447.669 818.25 447.7 818.345C447.7 818.345 447.719 818.405 447.73 818.441C447.806 818.968 447.945 819.474 448.125 819.967C447.955 819.471 447.806 818.968 447.73 818.441C447.719 818.405 447.711 818.381 447.7 818.345C447.673 818.262 447.647 818.179 447.616 818.084ZM448.426 820.763C448.64 821.285 448.864 821.803 449.067 822.329C448.864 821.803 448.629 821.288 448.426 820.763ZM378.719 584.139C378.895 584.069 379.066 583.988 379.191 583.869C379.062 583.976 378.891 584.057 378.719 584.139ZM381.608 581.976C380.881 582.21 380.154 582.444 379.426 582.678C379.502 582.916 379.517 583.108 379.5 583.271C379.482 583.434 379.442 583.565 379.374 583.679C379.442 583.565 379.493 583.431 379.5 583.271C379.507 583.111 379.488 582.907 379.422 582.666C380.15 582.432 380.877 582.198 381.605 581.965C381.706 582.208 381.831 582.456 381.991 582.628C381.831 582.456 381.716 582.204 381.605 581.965L381.608 581.976ZM477.923 869.047C477.758 868.93 477.607 868.821 477.441 868.704C477.38 868.474 477.308 868.287 477.223 868.131C477.308 868.287 477.383 868.486 477.441 868.704C477.607 868.821 477.758 868.93 477.923 869.047C478.003 868.969 478.089 868.876 478.182 868.767C478.096 868.861 478.014 868.966 477.923 869.047ZM478.314 868.633C478.4 868.54 478.501 868.455 478.588 868.401C478.491 868.458 478.4 868.54 478.314 868.633ZM445.435 749.496C445.241 749.545 445.052 749.645 444.857 749.616C445.048 749.634 445.237 749.533 445.431 749.484C445.497 749.62 445.574 749.714 445.644 749.823C445.578 749.726 445.501 749.632 445.431 749.484L445.435 749.496ZM446.718 750.383C446.383 750.425 446.045 750.35 445.739 749.976C446.055 750.347 446.383 750.425 446.718 750.383C446.94 750.351 447.168 750.264 447.403 750.163C447.179 750.261 446.94 750.351 446.718 750.383ZM428.255 662.476C428.068 662.327 427.889 662.095 427.73 661.779C427.893 662.107 428.068 662.327 428.255 662.476C428.443 662.626 428.649 662.691 428.855 662.717C428.653 662.703 428.443 662.626 428.255 662.476ZM438.18 658.393C438.031 657.89 437.811 657.567 437.508 657.455C437.401 657.41 437.291 657.393 437.178 657.403C437.294 657.405 437.405 657.422 437.508 657.455C437.815 657.579 438.031 657.89 438.18 658.393C438.549 658.275 438.922 658.168 439.284 658.065C438.915 658.183 438.542 658.29 438.18 658.393ZM470.188 657.854C470.093 657.885 469.998 657.915 469.914 657.943C469.995 657.903 470.086 657.861 470.188 657.854ZM513.856 734.456C513.856 734.456 513.888 734.446 513.909 734.439C513.898 734.443 513.877 734.45 513.856 734.456Z" fill="#442A14" fill-opacity="0.7"/>
<path d="M1437.21 971.741C1433.97 965.629 1431.3 959.471 1428.33 953.464C1425.73 948.215 1423.49 942.77 1419.52 937.963C1415.49 927.28 1411.7 916.833 1409.01 906.613C1410.84 905.168 1411.51 902.752 1413.54 901.519C1415.37 901.042 1417.22 900.612 1419 900.072C1421.29 899.389 1421.17 897.083 1420.92 895.034C1420.81 894.169 1419.05 892.828 1417.91 891.857C1414.19 888.702 1410.25 885.876 1406 883.691C1398.92 880.049 1392.01 875.97 1385.44 871.392C1381.4 868.572 1377.42 865.825 1373.1 863.567C1371.23 860.878 1367.92 860.134 1365.54 858.119C1362.23 855.31 1358.33 853.268 1354.93 850.537C1352.5 848.595 1349.64 847.041 1346.9 845.497C1339.2 841.18 1331.82 836.451 1324.63 831.417C1319.63 827.919 1314.86 824.063 1309.17 821.512C1304.88 819.583 1301.55 816.277 1297.46 814.221C1293.96 812.472 1291.07 810.063 1287.3 808.47C1281.94 806.198 1276.49 803.646 1271.68 799.969C1269.32 798.156 1266.27 795.903 1262.66 795.939C1254.29 790.731 1245.91 785.571 1237.6 780.363C1232.89 777.406 1228.02 774.556 1223.65 771.336C1218.85 767.795 1213.22 765.234 1208.28 761.92C1208.57 761.358 1208.18 761.016 1207.38 760.802C1206.61 760.404 1205.84 760.016 1205.07 759.628C1204.74 759.165 1204.18 758.999 1203.61 758.827C1202.95 758.482 1202.29 758.142 1201.63 757.802C1200.59 757.347 1199.74 755.997 1198.39 756.898C1197.78 756.654 1197.23 756.028 1196.53 756.447C1195.77 756.165 1194.95 755.449 1194.35 756.24C1193.9 756.044 1193.45 755.813 1193 756.009C1191.89 755.448 1190.85 755.216 1189.99 755.839C1189.19 755.461 1188.38 755.078 1187.84 755.781C1187.48 755.73 1187.12 755.678 1186.75 755.637C1186.75 755.637 1186.67 755.593 1186.66 755.589C1186.15 755.325 1185.81 755.385 1185.61 755.719L1185.52 755.797C1185.12 755.784 1184.7 755.767 1184.3 755.754C1173.29 755.791 1161.94 755.316 1150.88 756.311C1144.5 756.887 1137.95 757.352 1131.85 758.87C1129.62 759.427 1127.9 760.484 1125.66 761.084C1123.35 761.704 1124.5 764.475 1125.04 765.241C1128.49 770.196 1130.48 775.39 1132.84 780.602C1135.69 786.89 1138.65 793.25 1142.23 799.573C1142.44 799.939 1142.38 800.384 1142.44 800.795C1143.04 805.971 1145.92 810.934 1148.22 815.996C1149.26 818.279 1149.83 820.326 1148.35 822.311C1145.83 822.888 1143.35 823.432 1140.56 823.513C1136.2 823.649 1133.14 825.438 1129.83 827.571C1125.65 830.279 1127.02 833.237 1127.74 836.57C1128.04 837.928 1128.91 839.191 1128.63 840.677C1128.07 843.678 1126.04 844.775 1122.31 845.74C1116.41 847.257 1110.4 848.924 1104.83 851.392C1102.55 852.399 1101.83 853.94 1101.24 855.712C1101.19 855.858 1101.02 855.975 1100.89 856.096C1101.34 856.239 1101.79 856.377 1102.23 856.54C1104.69 857.471 1107.12 856.836 1109.55 856.757C1112.04 858.303 1115.41 857.286 1117.86 858.909C1113.95 861.171 1110.28 863.756 1107.14 866.711C1102.17 871.39 1094.83 873.968 1089.61 878.654C1088.66 879.505 1087.76 880.389 1086.86 881.283C1086.18 881.939 1085.34 882.658 1086.43 883.48C1087.62 884.379 1088.22 883.071 1089.14 882.907C1090.18 882.718 1090.37 881.528 1091.62 881.585C1092.11 882.332 1091.42 882.799 1091.02 883.241C1079.11 896.106 1069.57 910.938 1059.21 926.18C1049.06 941.112 1041.44 957.7 1036.4 975.683C1035.23 979.876 1035.65 984.086 1035.59 988.328C1035.57 989.692 1036.15 990.719 1038.22 989.747C1061.27 978.914 1085.95 977.436 1108.51 971.384C1119.63 968.406 1130.63 965.531 1141.76 963.889C1146.41 963.2 1151.18 963.202 1156.31 961.046C1154.08 965.403 1153.88 969.5 1151.08 972.719C1149.42 974.632 1150.33 977.046 1150.02 979.219C1148.46 990.222 1143.75 1000.76 1141.37 1012.15C1139.88 1019.28 1139.54 1026.85 1137.03 1033.83C1133.03 1044.95 1135.04 1056.05 1135.19 1067.51C1135.23 1070.64 1136.02 1073.7 1137.99 1076.26C1137.84 1084.09 1137.96 1084.43 1145.12 1081.34C1152.85 1078.01 1160.74 1075.08 1167.16 1069.61C1167.02 1069.45 1166.88 1069.28 1166.75 1069.11C1166.89 1069.28 1167.02 1069.45 1167.16 1069.61C1167.47 1069.6 1167.66 1069.43 1167.73 1069.13C1170.96 1069.08 1173.37 1067.29 1175.69 1065.33C1177.2 1065.82 1178.36 1065.43 1179.11 1063.97L1179.18 1063.95C1180.89 1064.16 1182 1063.17 1182.99 1061.97C1183.5 1061.65 1184.01 1061.31 1184.52 1060.99C1185.52 1061.26 1186.37 1061.16 1186.81 1060.05C1187.34 1059.78 1187.88 1059.52 1188.4 1059.25C1189.44 1059.47 1190.23 1059.14 1190.72 1058.18C1206.67 1050.83 1222.25 1043.88 1237.16 1036.72C1248.91 1031.09 1260.14 1025.12 1271.2 1019.48C1280.28 1017.41 1288.75 1014.49 1294 1006.95C1295.24 1005.18 1297.71 1004.73 1298.28 1002.45C1298.42 1002.38 1298.52 1002.25 1298.54 1002.09C1299.61 1002.07 1300.14 1001.49 1300.23 1000.45C1300.55 1000.15 1300.87 999.859 1301.18 999.553C1301.65 999.749 1301.88 999.56 1301.95 999.134C1306.64 994.18 1311.29 989.356 1316.34 985.067C1316.45 985.125 1316.6 985.226 1316.68 985.206C1325.25 982.323 1331.67 989.368 1338.92 993.392C1345.7 997.146 1350.04 1003.85 1356.39 1007.99C1357.02 1008.4 1357.73 1008.6 1358.4 1008.9C1358.61 1009.22 1358.93 1009.52 1359.03 1009.86C1359.84 1012.48 1361.89 1013.55 1363.99 1013.97C1366.3 1014.44 1366.71 1012.35 1367.2 1010.71C1368.87 1005.19 1368.74 999.09 1369.46 993.385C1369.87 990.124 1369.63 986.682 1370.48 983.564C1371.09 981.395 1370.03 978.735 1370.22 976.307C1370.82 969.017 1370.61 968.868 1378.25 969.867C1392.88 971.777 1407.15 972.867 1421.25 974.112C1422.75 974.25 1424.26 974.306 1425.66 974.173C1428.74 973.864 1431.71 973.657 1434.49 977.551C1434.98 978.236 1435.81 978.812 1436.44 978.534C1436.62 978.455 1436.15 977.379 1435.98 976.761C1439.07 976.089 1439.2 975.469 1437.2 971.707L1437.21 971.741ZM1353.62 852.439C1351.88 852.877 1352.55 853.614 1353.3 854.36C1352.55 853.614 1351.89 852.867 1353.62 852.439ZM1147.44 767.371C1154.63 766.637 1161.94 767.324 1169.16 768.765C1161.93 767.319 1154.63 766.637 1147.43 767.381C1145.86 767.524 1145 767.741 1144.73 768.177C1144.59 768.39 1144.6 768.666 1144.75 769.014C1144.6 768.666 1144.59 768.4 1144.73 768.177C1145 767.741 1145.86 767.524 1147.43 767.381L1147.44 767.371ZM1211.19 876.785C1211.53 877.634 1211.94 878.483 1212.32 879.333C1212.18 880.977 1212.02 882.642 1211.88 884.311C1212.02 882.642 1212.18 880.992 1212.32 879.342C1211.94 878.498 1211.53 877.649 1211.19 876.794L1211.19 876.785ZM1159.2 1064.69C1159.99 1064.85 1160.61 1064.67 1161.06 1064.17C1160.6 1064.68 1159.98 1064.86 1159.2 1064.69ZM1215.26 1031.88C1218.45 1029.63 1221.38 1027.02 1225.47 1026.47C1226.03 1025.98 1226.57 1025.42 1227.16 1024.96C1226.57 1025.42 1226.04 1025.99 1225.47 1026.48C1221.39 1027.03 1218.45 1029.63 1215.27 1031.89L1215.26 1031.88ZM1185.45 958.314C1186.26 956.888 1187.05 955.458 1187.85 954.052C1187.05 955.468 1186.26 956.888 1185.45 958.314C1185.04 958.369 1184.63 958.429 1184.22 958.474C1184.64 958.419 1185.04 958.359 1185.45 958.314ZM1247.28 1009.02C1247.37 1008.86 1247.43 1008.68 1247.5 1008.51C1247.43 1008.68 1247.36 1008.85 1247.28 1009.02C1245.57 1011.3 1243.17 1012.48 1240.25 1012.84C1239.75 1014.28 1238.58 1014.89 1237.36 1015.4C1238.59 1014.88 1239.74 1014.28 1240.25 1012.83C1243.17 1012.47 1245.58 1011.3 1247.29 1009.01L1247.28 1009.02ZM1189.22 947.222C1189.64 946.485 1190.13 945.792 1190.66 945.132C1190.13 945.792 1189.65 946.49 1189.22 947.222ZM1172.7 988.843C1172.84 988.059 1172.96 987.26 1173.09 986.481C1172.96 987.27 1172.84 988.059 1172.7 988.843C1171.82 988.808 1171.13 989.048 1170.59 989.568C1171.12 989.044 1171.82 988.803 1172.7 988.843ZM1224.81 1004.33C1225.69 1003.6 1226.61 1002.94 1227.53 1002.27C1226.61 1002.94 1225.69 1003.61 1224.81 1004.33ZM1222.42 1008.76C1222.92 1009.22 1223.25 1009.76 1223.46 1010.35C1223.24 1009.75 1222.92 1009.22 1222.42 1008.76ZM1203.19 947.69C1203.67 947.828 1204.15 947.956 1204.64 948.074C1204.15 947.956 1203.66 947.837 1203.19 947.69ZM1210.86 944.477C1208.72 944.975 1207.33 946.466 1206.64 949.182C1207.34 946.471 1208.71 944.985 1210.86 944.477ZM1255.73 870.872C1255.78 870.799 1255.86 870.741 1255.93 870.682C1255.85 870.736 1255.78 870.799 1255.73 870.872ZM1256.76 872.487C1256.57 872.386 1256.36 872.281 1256.17 872.171C1256.37 872.271 1256.57 872.377 1256.76 872.487ZM1249.84 863.612C1252.23 865.806 1254.53 868.092 1257.36 869.912C1257.3 870.004 1257.21 870.067 1257.11 870.135C1257.21 870.067 1257.29 869.999 1257.36 869.912C1254.53 868.092 1252.24 865.81 1249.84 863.612ZM1256.98 870.204C1256.98 870.204 1256.94 870.223 1256.93 870.228C1256.94 870.223 1256.96 870.208 1256.98 870.204ZM1259.34 871.822C1260.5 872.852 1261.66 873.891 1262.22 875.286C1263.33 875.933 1263.59 876.982 1264.09 877.937C1263.59 876.991 1263.33 875.933 1262.22 875.286C1261.64 873.896 1260.5 872.852 1259.34 871.822ZM1264.05 911.328C1258.85 913.349 1253.09 914.469 1247.45 915.921C1246.73 916.607 1245.96 916.393 1245.17 916.043C1245.96 916.402 1246.73 916.616 1247.45 915.921C1253.09 914.473 1258.85 913.339 1264.06 911.333L1264.05 911.328ZM1246.68 976.072C1247.54 975.952 1248.45 976.04 1249.43 976.572C1250.39 975.881 1251.41 975.242 1252.4 974.575C1251.41 975.242 1250.4 975.885 1249.43 976.572C1248.45 976.054 1247.55 975.957 1246.68 976.072ZM1217.71 1025.87C1217.25 1026.26 1216.67 1026.31 1215.98 1026.04C1216.67 1026.31 1217.24 1026.24 1217.71 1025.87ZM1165.39 986.851C1164.86 987.022 1164.5 987.242 1164.33 987.484C1164.51 987.232 1164.86 987.022 1165.39 986.851ZM1269.51 894.547C1269.54 895.446 1269.39 896.312 1268.79 897.069C1269.39 896.303 1269.54 895.446 1269.51 894.547ZM1268.91 897.306C1269.19 897.904 1268.94 898.423 1268.77 898.951C1269.12 899.244 1269.27 899.553 1269.34 899.92C1269.26 899.562 1269.12 899.244 1268.77 898.951C1268.93 898.418 1269.18 897.899 1268.91 897.306ZM1268.35 994.778C1261.52 998.635 1254.57 1002.53 1247.51 1006.5C1244.98 1007.43 1242.49 1008.46 1240.45 1010.25C1242.49 1008.46 1244.97 1007.43 1247.51 1006.5C1254.57 1002.54 1261.53 998.639 1268.35 994.778ZM1284.95 988.11C1284.82 988.043 1284.69 987.975 1284.55 987.904C1284.82 987.303 1285.08 986.692 1285.36 986.096C1285.09 986.697 1284.82 987.303 1284.55 987.904C1284.68 987.971 1284.81 988.038 1284.95 988.11ZM1279.85 988.66C1280.03 988.582 1280.23 988.528 1280.46 988.512C1280.82 988.487 1281.22 988.548 1281.72 988.695C1281.22 988.538 1280.82 988.487 1280.46 988.512C1280.23 988.528 1280.03 988.582 1279.85 988.66ZM1282.23 987.585C1282.79 986.5 1283.52 985.626 1285.3 985.995C1283.53 985.616 1282.8 986.49 1282.23 987.585ZM1289.35 987.93C1288.82 988.749 1288.06 989.29 1286.59 988.997C1288.06 989.299 1288.82 988.749 1289.35 987.93ZM1350.73 863.429C1352.28 864.771 1353.7 866.244 1354.86 867.878C1353.7 866.244 1352.27 864.781 1350.73 863.429ZM1260.96 1003.86C1260.9 1003.28 1260.84 1002.71 1260.77 1002.15C1258.91 1003.29 1257.06 1004.44 1255.14 1005.53C1257.06 1004.45 1258.91 1003.29 1260.77 1002.15C1260.83 1002.72 1260.9 1003.3 1260.96 1003.86ZM1212.71 1028.61C1212.25 1029 1211.67 1029.08 1210.96 1028.79C1211.67 1029.08 1212.24 1028.99 1212.71 1028.61ZM1154.79 1018.81C1156.85 1017.75 1157.27 1016.06 1157.51 1014.29C1157.27 1016.06 1156.85 1017.76 1154.79 1018.81C1154.66 1019.06 1154.52 1019.3 1154.38 1019.55C1154.51 1019.3 1154.65 1019.05 1154.79 1018.81ZM1165.76 990.05C1165.85 989.324 1165.77 988.537 1165.83 987.792C1165.78 988.527 1165.85 989.315 1165.76 990.05ZM1163.33 976.444C1163.98 976.987 1164.24 977.697 1163.61 978.783C1164.23 977.707 1163.97 976.997 1163.33 976.444ZM1058.64 949.927C1058.61 949.985 1058.57 950.038 1058.53 950.091C1058.56 950.033 1058.6 949.98 1058.64 949.927ZM1055.68 962.049C1054.59 963.572 1053.51 965.101 1052.42 966.634C1053.51 965.101 1054.6 963.568 1055.68 962.049ZM1080.09 937.404C1078.14 940.904 1074.93 943.893 1072.58 947.309C1074.92 943.903 1078.14 940.904 1080.09 937.404ZM1108.12 951.815C1107.64 951.619 1107.17 951.438 1106.71 951.246L1108.12 951.806C1108.15 951.931 1108.18 952.042 1108.22 952.163C1108.18 952.047 1108.15 951.931 1108.12 951.806L1108.12 951.815ZM1123.85 952.666C1124.88 952.366 1125.95 952.216 1127.09 952.501C1125.94 952.211 1124.87 952.361 1123.85 952.666ZM1132.3 951.906L1131.08 952.236C1131.49 952.128 1131.89 952.014 1132.3 951.906L1132.27 951.94C1132.73 952.131 1133.15 952.178 1133.52 952.084C1133.15 952.173 1132.73 952.141 1132.27 951.94L1132.29 951.901L1132.3 951.906ZM1056.21 962.815C1056.07 962.99 1055.94 963.165 1055.82 963.349C1055.95 963.17 1056.07 962.99 1056.21 962.815ZM1166.84 932.374C1165.85 930.744 1164.7 929.178 1163.63 927.592C1164.7 929.178 1165.86 930.749 1166.84 932.374ZM1160.41 928.1C1158.36 925.687 1157.05 922.835 1154.68 920.626C1153.77 917.715 1152.02 915.15 1150.21 912.334C1152.02 915.16 1153.77 917.715 1154.68 920.626C1157.04 922.83 1158.36 925.677 1160.41 928.1ZM1158.5 910.768C1156.46 907.513 1154.21 904.361 1153.15 900.802C1150.78 898.618 1149.45 896.027 1148.23 893.416C1149.45 896.027 1150.79 898.622 1153.15 900.802C1154.21 904.347 1156.46 907.513 1158.5 910.768ZM1127.65 891.853C1128.99 891.209 1130.45 890.709 1131.76 890.05C1130.45 890.723 1129 891.213 1127.65 891.853ZM1137.55 883.998C1137.88 884.17 1137.98 884.673 1137.85 885.49C1138.18 886.19 1137.88 886.772 1137.47 887.33C1137.15 887.472 1136.84 887.618 1136.51 887.769C1136.83 887.628 1137.14 887.481 1137.47 887.33C1137.89 886.777 1138.19 886.195 1137.85 885.481C1137.98 884.663 1137.89 884.16 1137.56 883.988L1137.55 883.998ZM1134.6 942.466C1135.53 941.485 1136.57 940.672 1138.32 941.012C1136.57 940.672 1135.54 941.489 1134.6 942.466ZM1138.38 941.181C1138.4 941.254 1138.44 941.321 1138.44 941.331C1138.44 941.331 1138.41 941.259 1138.38 941.181ZM1131.48 949.715C1130.66 950.149 1129.87 950.636 1129.01 951.017C1128.73 951.434 1128.44 951.852 1128.17 952.273C1128.45 951.856 1128.74 951.439 1129.01 951.017C1129.86 950.646 1130.66 950.149 1131.48 949.715ZM1134.29 943.091L1134.21 942.903C1134.21 942.903 1134.26 943.014 1134.29 943.091ZM1132.2 918.801C1131.37 918.607 1130.55 918.475 1129.76 919.107C1130.55 918.485 1131.37 918.607 1132.2 918.801ZM1073.8 955.272C1074.03 955.107 1074.25 954.927 1074.44 954.742C1074.24 954.922 1074.02 955.102 1073.8 955.272ZM1073.1 955.817C1073.1 955.817 1073.18 955.759 1073.22 955.73C1073.18 955.759 1073.14 955.788 1073.1 955.817ZM1072.17 952.596C1074.32 948.896 1077.6 945.743 1079.46 941.991C1077.59 945.738 1074.31 948.892 1072.17 952.596ZM1131.09 871.445C1131.88 874.691 1132.31 877.996 1133.67 881.216C1133.99 881.601 1134.12 882.074 1134.25 882.533C1134.29 882.692 1134.33 882.847 1134.38 882.997C1134.33 882.847 1134.29 882.688 1134.25 882.533C1134.11 882.07 1133.99 881.601 1133.66 881.211C1132.18 880.937 1131.29 880.966 1130.89 881.272C1131.3 880.956 1132.19 880.928 1133.66 881.211C1132.31 877.996 1131.87 874.686 1131.08 871.44L1131.09 871.445ZM1165.3 933C1164.75 932.717 1164.21 932.425 1163.66 932.128C1163.78 931.561 1163.72 931.063 1163.31 930.679C1163.72 931.063 1163.79 931.566 1163.66 932.128C1164.21 932.41 1164.75 932.703 1165.3 933ZM1140.75 950.436C1138.5 949.987 1136.7 951.509 1134.52 951.422C1136.69 951.504 1138.5 949.982 1140.75 950.436ZM1126.97 954.034C1126.83 954.011 1126.73 953.982 1126.66 953.934C1126.73 953.973 1126.82 954.021 1126.97 954.034ZM1110.74 936.217C1116.6 932.887 1122.08 929.293 1126.79 924.987C1129.28 924.139 1130.98 922.641 1132.38 920.894C1130.98 922.641 1129.28 924.139 1126.78 924.997C1122.08 929.303 1116.59 932.897 1110.74 936.227L1110.74 936.217ZM1168.44 841.271C1168.6 841.425 1168.79 841.574 1169.01 841.713C1168.8 841.579 1168.6 841.425 1168.44 841.271ZM1127.12 956.645C1129.06 955.292 1131.25 954.677 1133.72 955.014C1135.31 953.193 1138.24 953.412 1139.96 951.822C1140.21 951.386 1140.46 950.94 1140.71 950.503C1140.46 950.94 1140.22 951.376 1139.96 951.822C1143.96 951.581 1147.34 950.052 1150.58 948.257C1151.16 948.443 1151.69 948.475 1152.15 948.347C1151.69 948.475 1151.16 948.448 1150.58 948.257C1147.35 950.047 1143.97 951.586 1139.96 951.822C1138.25 953.402 1135.32 953.188 1133.72 955.014C1131.25 954.677 1129.07 955.282 1127.12 956.645ZM1105.4 953.491C1105.03 953.498 1104.66 953.475 1104.26 953.419C1104.65 953.471 1105.03 953.498 1105.4 953.491ZM1047.77 969.949C1046.47 972.092 1045.19 974.24 1043.89 976.403C1045.19 974.24 1046.49 972.087 1047.77 969.949C1049.28 970.169 1050.06 969.628 1050.66 968.891C1050.06 969.638 1049.28 970.179 1047.77 969.949ZM1049.23 965.034C1049.38 964.878 1049.53 964.723 1049.67 964.562C1049.53 964.723 1049.39 964.883 1049.23 965.034ZM1256.08 1012.41C1256.82 1011.94 1257.31 1011.13 1257.96 1010.53C1257.31 1011.13 1256.82 1011.94 1256.08 1012.4L1256.08 1012.41ZM1213.67 1028.09C1213.5 1028.11 1213.32 1028.12 1213.13 1028.12C1213.31 1028.11 1213.49 1028.11 1213.67 1028.09C1214.01 1028.04 1214.29 1027.95 1214.56 1027.8C1214.29 1027.95 1214 1028.04 1213.67 1028.09ZM1201.58 1040.03C1201.34 1040.03 1201.08 1039.92 1200.82 1039.86C1201.08 1039.93 1201.33 1040.02 1201.58 1040.03ZM1197.47 1041.93C1197.59 1041.96 1197.71 1041.99 1197.83 1042.03C1197.71 1042 1197.59 1041.96 1197.47 1041.93ZM1192.73 1039.58C1195.95 1039.15 1198.35 1037.37 1200.67 1035.5C1201.43 1034.89 1202.19 1034.27 1202.97 1033.68C1203.21 1033.79 1203.45 1033.88 1203.7 1033.97C1203.45 1033.89 1203.21 1033.79 1202.97 1033.68C1202.19 1034.27 1201.43 1034.88 1200.67 1035.5C1198.35 1037.37 1195.95 1039.15 1192.73 1039.58ZM1173.27 1065.4C1172.97 1065.45 1172.68 1065.54 1172.39 1065.64C1172.68 1065.55 1172.97 1065.47 1173.27 1065.4ZM1169.34 1067.4C1170.2 1066.63 1171.15 1066.04 1172.19 1065.68C1171.14 1066.03 1170.2 1066.63 1169.34 1067.4ZM1157.75 1000.86C1157.74 1000.31 1157.88 999.749 1158.03 999.168C1157.88 999.739 1157.75 1000.31 1157.75 1000.86ZM1127.49 957.843C1128.77 957.827 1130 957.667 1131.19 957.4C1129.99 957.662 1128.77 957.827 1127.49 957.843ZM1101.29 964.884C1103.51 964.782 1105.64 964.506 1106.84 962.527C1106.99 962.493 1107.14 962.458 1107.28 962.434C1107.13 962.468 1106.99 962.503 1106.84 962.527C1105.63 964.501 1103.51 964.777 1101.29 964.884ZM1100.68 965.375C1100.89 965.253 1101.06 965.059 1101.25 964.889C1101.07 965.05 1100.88 965.249 1100.68 965.375ZM1046.22 970.56C1046.3 970.444 1046.39 970.318 1046.47 970.201C1046.39 970.318 1046.31 970.434 1046.22 970.56ZM1363.98 857.976C1364.12 859.237 1365.26 859.517 1366.22 859.967C1365.26 859.517 1364.13 859.228 1363.98 857.976Z" fill="#442A14" fill-opacity="0.7"/>
<g filter="url(#filter0_f_13_184)">
<path d="M238 1081V981.019H259.442L544.172 912L567.609 931.351L608 1081H238Z" fill="#442A14" fill-opacity="0.7"/>
</g>
<g filter="url(#filter1_f_13_184)">
<path d="M1102 1080L1430.35 860L1749 871.697L1673.05 1080H1102Z" fill="#442A14" fill-opacity="0.7"/>
</g>
<g filter="url(#filter2_f_13_184)">
<path d="M1419.11 1080.37L1597.51 1006.13L1885.24 1013.36L1914.76 1079.23L1419.11 1080.37Z" fill="#442A14" fill-opacity="0.7"/>
</g>
<rect width="1917.01" height="1080" fill="url(#paint1_linear_13_184)" fill-opacity="0.2"/>
<path d="M656.292 812C656.292 812 726.642 988.302 978.951 1011.65C1257.28 1037.41 1534.69 940.26 1534.69 940.26L1708.55 338.367C1708.55 338.367 1628.74 290.231 1600.76 276.731C1568.19 261.004 1466.34 223 1466.34 223L656.292 812Z" fill="url(#paint2_linear_13_184)" fill-opacity="0.37"/>
<defs>
<filter id="filter0_f_13_184" x="234" y="908" width="378" height="177" filterUnits="userSpaceOnUse" color-interpolation-filters="sRGB">
<feFlood flood-opacity="0" result="BackgroundImageFix"/>
<feBlend mode="normal" in="SourceGraphic" in2="BackgroundImageFix" result="shape"/>
<feGaussianBlur stdDeviation="2" result="effect1_foregroundBlur_13_184"/>
</filter>
<filter id="filter1_f_13_184" x="1098" y="856" width="655" height="228" filterUnits="userSpaceOnUse" color-interpolation-filters="sRGB">
<feFlood flood-opacity="0" result="BackgroundImageFix"/>
<feBlend mode="normal" in="SourceGraphic" in2="BackgroundImageFix" result="shape"/>
<feGaussianBlur stdDeviation="2" result="effect1_foregroundBlur_13_184"/>
</filter>
<filter id="filter2_f_13_184" x="1415.11" y="1002.13" width="503.652" height="82.2361" filterUnits="userSpaceOnUse" color-interpolation-filters="sRGB">
<feFlood flood-opacity="0" result="BackgroundImageFix"/>
<feBlend mode="normal" in="SourceGraphic" in2="BackgroundImageFix" result="shape"/>
<feGaussianBlur stdDeviation="2" result="effect1_foregroundBlur_13_184"/>
</filter>
<linearGradient id="paint0_linear_13_184" x1="217.434" y1="0" x2="217.434" y2="672" gradientUnits="userSpaceOnUse">
<stop stop-color="#010D52"/>
<stop offset="1" stop-color="#5702B8"/>
</linearGradient>
<linearGradient id="paint1_linear_13_184" x1="958.505" y1="0" x2="958.505" y2="1080" gradientUnits="userSpaceOnUse">
<stop stop-color="#010D52"/>
<stop offset="1" stop-color="#5702B8"/>
</linearGradient>
<linearGradient id="paint2_linear_13_184" x1="1182.42" y1="223" x2="1182.42" y2="1016" gradientUnits="userSpaceOnUse">
<stop stop-color="#994C05"/>
<stop offset="1" stop-color="#FFD108"/>
</linearGradient>
</defs>
</svg>
